<svg width="25" height="24" viewBox="0 0 25 24" fill="none" xmlns="http://www.w3.org/2000/svg">
<g id="mystery_FILL0_wght200_GRAD0_opsz24 1">
<path id="Vector" d="M11.3964 18C13.3545 18 15.0257 17.3176 16.4098 15.9529C17.794 14.5881 18.4861 12.9372 18.4861 11C18.4861 9.06667 17.794 7.41667 16.4098 6.05C15.0257 4.68333 13.3545 4 11.3964 4C9.43442 4 7.76232 4.68333 6.3801 6.05C4.99787 7.41667 4.30675 9.06667 4.30675 11C4.30675 12.9372 4.99787 14.5881 6.3801 15.9529C7.76232 17.3176 9.43442 18 11.3964 18ZM11.3964 19C10.2732 19 9.22049 18.7914 8.2382 18.3741C7.25591 17.9567 6.39762 17.3856 5.66334 16.6606C4.92905 15.9356 4.35058 15.0881 3.92791 14.1183C3.50527 13.1484 3.29395 12.109 3.29395 11C3.29395 9.89487 3.50527 8.85737 3.92791 7.8875C4.35058 6.91763 4.92905 6.06923 5.66334 5.3423C6.39762 4.61538 7.25591 4.04327 8.2382 3.62595C9.22049 3.20865 10.2732 3 11.3964 3C12.5157 3 13.5665 3.20865 14.5488 3.62595C15.5311 4.04327 16.3903 4.61538 17.1266 5.3423C17.8628 6.06923 18.4423 6.91763 18.8649 7.8875C19.2876 8.85737 19.4989 9.89487 19.4989 11C19.4989 12.0154 19.3184 12.9724 18.9574 13.8712C18.5965 14.7699 18.0972 15.5788 17.4597 16.2981L21.5245 20.3116L20.8214 21L16.7565 16.9923C16.0281 17.6218 15.2087 18.1138 14.2985 18.4683C13.3883 18.8228 12.4209 19 11.3964 19Z" fill="#282828"/>
</g>
</svg>
